<svg xmlns="http://www.w3.org/2000/svg" width="164" height="448" viewBox="0 0 164 448">
    <g fill="none" fill-rule="evenodd">
        <path fill="#C8C8C8" d="M23.457 7.618C41.751 3.03 61.265.598 82 .322c20.883-.277 40.528 2.022 58.934 6.895C154.531 10.817 164 23.12 164 37.185v376.011c0 15.736-11.79 28.976-27.42 30.793A472.191 472.191 0 0 1 82 447.162a472.191 472.191 0 0 1-54.58-3.173C11.79 442.172 0 428.932 0 413.196V37.686C0 23.471 9.669 11.077 23.457 7.618z"/>
        <path fill="#F4F4F4" d="M160.564 46.2c-.224 29.716-1.671 86.911-2.777 136.308-1.105 49.396-7.139 68.484-11.7 83.385-4.56 14.9-19.51 42.785-19.1 70.246.199 13.361.167 27.73 4.671 47.06 4.753 20.396 14.712 35.602 11.684 46.707-2.181 7.999-38.957 9.205-59.18 9.205s-60.65-1.223-62.826-9.205c-3.028-11.105 6.931-26.31 11.684-46.707 4.503-19.33 4.472-33.699 4.671-47.06.41-27.461-14.54-55.346-19.101-70.246-4.56-14.9-10.594-33.989-11.7-83.385C5.786 133.11 4.442 75.916 4.218 46.199 3.992 16.482 35.137 3.671 82.39 3.602c47.255-.07 78.398 12.933 78.173 42.597z"/>
        <path fill="#E0E0E0" d="M157.578 46.2c-.224 29.716-1.672 86.911-2.777 136.308-1.106 49.396-4.153 68.484-8.713 83.385-4.56 14.9-19.512 42.785-19.102 70.246.2 13.361.168 27.73 4.672 47.06 4.753 20.396 14.712 35.602 11.684 46.707-2.181 7.999-38.957 9.205-59.18 9.205s-60.65-1.223-62.826-9.205c-3.028-11.105 6.931-26.31 11.684-46.707 4.503-19.33 4.472-33.699 4.671-47.06.41-27.461-14.54-55.346-19.101-70.246-4.56-14.9-6.973-33.989-8.078-83.385C9.406 133.11 8.062 75.916 7.838 46.199 7.613 16.482 35.136 13.37 82.39 13.301c47.254-.07 75.411 3.234 75.187 32.898z"/>
    </g>
</svg>
