<?xml version="1.0" encoding="UTF-8"?>
<svg width="108px" height="26px" viewBox="0 0 108 26" version="1.1" xmlns="http://www.w3.org/2000/svg" xmlns:xlink="http://www.w3.org/1999/xlink">
    <!-- Generator: Sketch 47.1 (45422) - http://www.bohemiancoding.com/sketch -->
    <title>logo_s</title>
    <desc>Created with Sketch.</desc>
    <defs>
        <linearGradient x1="50%" y1="100%" x2="50%" y2="0%" id="linearGradient-1">
            <stop stop-color="#B5B5B5" offset="0%"></stop>
            <stop stop-color="#FFFFFF" offset="100%"></stop>
        </linearGradient>
    </defs>
    <g id="Page-1" stroke="none" stroke-width="1" fill="none" fill-rule="evenodd">
        <g id="fake-OS" transform="translate(-17.000000, -17.000000)">
            <g id="taskbar">
                <g id="logo_s" transform="translate(17.000000, 17.000000)">
                    <path d="M3.8429326,12.5728713 L8.17728308,12.5953938 C8.17728308,12.5953938 8.48598694,12.0541994 9.00000903,12.0526736 C9.28873323,12.0518745 9.71934933,12.5936501 9.71934933,12.5936501 L13.9391256,12.5931415 L13.8667629,14.5185266 L12.2491372,15.3240337 L11.2617062,17.2648213 L12.5880648,15.7036472 C12.5880648,15.7036472 14.1275156,15.3402354 15.3986577,14.6719704 C16.3016655,14.1971811 17.0769489,13.2187591 17.0623456,12.7962802 C17.0199887,11.5705464 16.4814824,11.3903662 16.2815406,11.287925 C16.081526,11.1854839 17.6402299,11.615882 17.6078265,12.7962802 C17.5994714,13.099753 17.3795499,13.771796 17.0193348,14.3452485 C15.9783583,16.0023249 13.9540921,18.110433 13.9540921,18.110433 L16.3532494,18.5953211 L9.00000903,25.726315 L1.34605669,18.6661581 C1.34605669,18.6661581 3.24870127,17.9873583 3.8111831,18.2664923 C4.12017758,18.4197908 0.137033148,14.3962511 0.178808794,13.0505667 C0.22254608,11.6413107 1.43447575,11.0931415 1.43447575,11.0931415 C1.43447575,11.0931415 0.280014839,12.7181052 0.76526622,13.2478204 C2.90715811,15.5864574 5.16297038,15.7276954 5.16297038,15.7276954 L6.29272917,17.3565097 L5.43120635,15.2933014 L3.835304,14.3377652 L3.8429326,12.5728713 Z M7.36712614,18.8979948 L8.87802414,21.4555362 L10.4274284,18.8520052 C10.4274284,18.8520052 9.70619909,19.7354693 9.36879717,19.9134699 C9.08406889,20.0637169 8.69014271,20.0659692 8.40308953,19.920372 C8.06946558,19.7510898 7.36712614,18.8979948 7.36712614,18.8979948 Z M2.64458909,6.11987794 L3.28357485,2.30841325 L5.73569633,0 L7.82469662,0.395887823 L5.99187186,1.19667248 L11.9841706,0.0118424876 L14.885798,2.38760535 L15.2235632,6.17473118 C15.2235632,6.17473118 18.0900991,6.5010898 17.9978294,7.46883173 C17.9055597,8.43657367 13.0027699,11.4354839 8.68287738,11.2822581 C4.36305756,11.1290323 0.177283075,8.77724499 0.00741966333,7.53523685 C-0.162371095,6.29330137 2.6381956,6.11566405 2.64458909,6.11987794 Z M2.99630371,7.6949288 C2.99630371,7.6949288 6.13376375,9.56422552 9.00000903,9.47217379 C11.8662543,9.38019471 14.8976405,7.52695437 14.8976405,7.52695437 C14.8976405,7.52695437 10.7416539,8.80594304 9.00000903,8.89843069 C7.2582915,8.99091834 2.99630371,7.6949288 2.99630371,7.6949288 Z" id="Page-1" fill="url(#linearGradient-1)"></path>
                    <text id="seriousOS" font-family="IBMPlexSans-SemiBold, IBM Plex Sans" font-size="16" font-weight="500" letter-spacing="-0.1777778" fill="#FFFFFF">
                        <tspan x="35.2320001" y="17">seriousOS</tspan>
                    </text>
                </g>
            </g>
        </g>
    </g>
</svg>