<svg xmlns="http://www.w3.org/2000/svg" xmlns:xlink="http://www.w3.org/1999/xlink" width="220" height="502" viewBox="0 0 220 502">
    <defs>
        <path id="b" d="M23.457 7.618C41.751 3.03 61.265.598 82 .322c20.883-.277 40.528 2.022 58.934 6.895C154.531 10.817 164 23.12 164 37.185v376.011c0 15.736-11.79 28.976-27.42 30.793A472.191 472.191 0 0 1 82 447.162a472.191 472.191 0 0 1-54.58-3.173C11.79 442.172 0 428.932 0 413.196V37.686C0 23.471 9.669 11.077 23.457 7.618z"/>
        <filter id="a" width="163.4%" height="123.3%" x="-31.7%" y="-7.2%" filterUnits="objectBoundingBox">
            <feOffset dy="20" in="SourceAlpha" result="shadowOffsetOuter1"/>
            <feGaussianBlur in="shadowOffsetOuter1" result="shadowBlurOuter1" stdDeviation="14"/>
            <feColorMatrix in="shadowBlurOuter1" values="0 0 0 0 0 0 0 0 0 0 0 0 0 0 0 0 0 0 0.0744451993 0"/>
        </filter>
    </defs>
    <g fill="none" fill-rule="evenodd">
        <g transform="translate(28 7)">
            <use fill="#000" filter="url(#a)" xlink:href="#b"/>
            <use fill="#C8C8C8" xlink:href="#b"/>
        </g>
        <path fill="#F4F4F4" d="M188.564 53.2c-.224 29.716-1.671 86.911-2.777 136.308-1.105 49.396-7.139 68.484-11.7 83.385-4.56 14.9-19.51 42.785-19.1 70.246.199 13.361.167 27.73 4.671 47.06 4.753 20.396 14.712 35.602 11.684 46.707-2.181 7.999-38.957 9.205-59.18 9.205s-60.65-1.223-62.826-9.205c-3.028-11.105 6.931-26.31 11.684-46.707 4.503-19.33 4.472-33.699 4.671-47.06.41-27.461-14.54-55.346-19.101-70.246-4.56-14.9-10.594-33.989-11.7-83.385-1.105-49.397-2.449-106.592-2.673-136.309-.225-29.717 30.92-42.528 78.174-42.597 47.255-.07 78.398 12.933 78.173 42.597z"/>
        <path fill="#E0E0E0" d="M185.578 53.2c-.224 29.716-1.672 86.911-2.777 136.308-1.106 49.396-4.153 68.484-8.713 83.385-4.56 14.9-19.512 42.785-19.102 70.246.2 13.361.168 27.73 4.672 47.06 4.753 20.396 14.712 35.602 11.684 46.707-2.181 7.999-38.957 9.205-59.18 9.205s-60.65-1.223-62.826-9.205c-3.028-11.105 6.931-26.31 11.684-46.707 4.503-19.33 4.472-33.699 4.671-47.06.41-27.461-14.54-55.346-19.101-70.246-4.56-14.9-6.973-33.989-8.078-83.385-1.106-49.397-2.45-106.592-2.674-136.309-.225-29.717 27.298-32.83 74.553-32.898 47.254-.07 75.411 3.234 75.187 32.898z"/>
    </g>
</svg>
